<svg width="400" height="202" viewBox="0 0 400 202" fill="none" xmlns="http://www.w3.org/2000/svg">
<g clip-path="url(#clip0_27_2)">
<rect width="400" height="202" fill="white"/>
<path fill-rule="evenodd" clip-rule="evenodd" d="M49.1742 111.479C46.0729 112.115 43.1989 113.816 40.4557 116.527C37.709 119.288 36.2388 122.436 35.9984 125.92C35.8474 128.11 36.4239 130.649 37.6886 133.387C38.9498 136.174 41.0107 138.266 43.7682 139.707C44.7023 139.971 45.1169 140.5 45.0688 141.196C45.0517 141.445 44.6853 141.67 43.8236 141.81C39.3631 140.353 35.7901 137.656 33.1476 133.823C30.5084 129.941 29.3003 125.658 29.5302 120.873C30.0335 115.758 31.9095 111.087 35.1548 106.911C38.4533 102.689 42.5107 99.8184 47.3267 98.3007L45.1037 80.3967C36.9822 86.2365 30.2901 92.4249 24.9707 99.0581C19.6548 105.642 16.6422 112.984 15.883 121.082C15.7321 124.722 16.2365 128.306 17.3998 131.787C18.5596 135.317 20.4418 138.547 23.0396 141.576C28.2884 147.589 35.4187 151.031 44.3272 151.945C47.3838 151.956 50.664 151.633 54.2176 150.978L49.1742 111.479ZM52.8001 111.229L57.9415 150.035C65.8364 147.479 70.1409 141.026 70.8483 130.775C70.6362 127.31 69.8514 124.156 68.3442 121.302C66.8904 118.401 64.8466 116.06 62.163 114.275C59.4794 112.49 56.3917 111.477 52.8001 111.229ZM46.1449 58.7678C47.8597 57.8861 49.8755 56.2751 52.0889 53.9778C54.299 51.7302 56.49 49.0313 58.6053 45.9771C60.7739 42.8766 62.5469 39.6989 63.9243 36.4438C65.2982 33.2385 66.0633 30.1412 66.2624 27.2548C66.3482 26.0107 66.3343 24.7597 66.1604 23.6477C66.0845 21.8424 65.6319 20.4111 64.7494 19.4002C63.8634 18.439 62.7005 17.8587 61.2041 17.7555C58.2111 17.5489 55.3903 19.2044 52.7418 22.7217C50.6764 25.7793 48.8691 29.4548 47.4764 33.6588C46.0303 37.9092 45.0866 42.1442 44.6881 46.4668C44.5976 51.4108 45.1176 55.4968 46.1449 58.7678ZM42.8031 61.4373C41.1146 53.2205 40.4341 44.9233 40.7615 36.5456C41.1822 31.1744 42.0777 26.186 43.448 21.5804C44.7684 16.9714 46.4931 13.0403 48.6291 9.68752C50.7151 6.33135 53.042 3.84182 55.5601 2.2155C57.8149 0.771042 59.4197 0.0317442 60.2677 0.0902596C60.9162 0.135006 61.4477 0.421694 61.9156 0.903999C62.3836 1.3863 62.9806 2.17752 63.71 3.22789C69.0659 12.0477 71.3584 22.4063 70.5412 34.2503C70.1532 39.8737 69.0273 45.2962 67.1531 50.6671C65.3322 55.9916 62.8302 61.0191 59.6538 65.6501C56.424 70.3274 52.7401 74.3234 48.5487 77.6843L51.2364 97.5704C53.4485 97.473 54.9587 97.3772 55.8067 97.4357C59.5978 97.6973 62.935 98.7276 65.9677 100.537C69.0005 102.346 71.5466 104.672 73.5526 107.561C75.562 110.399 77.0452 113.602 78.002 117.168C78.909 120.731 79.3068 124.408 79.0459 128.19C78.6407 134.063 76.7235 139.33 73.2977 143.944C69.8719 148.558 64.989 151.771 58.5956 153.63C58.8264 156.096 59.281 159.678 60.0161 164.278C60.6979 168.926 61.1955 172.61 61.5089 175.332C61.8223 178.054 61.8433 180.655 61.6682 183.193C61.397 187.125 60.2088 190.543 58.1004 193.497C55.9421 196.448 53.1833 198.658 49.7743 200.123C46.4151 201.591 42.7652 202.189 38.8743 201.921C33.3871 201.542 28.7047 199.669 24.8238 196.351C20.9462 192.984 19.0363 188.702 19.2008 183.413C19.5118 181.084 20.2116 178.932 21.3534 176.911C22.4953 174.89 23.9589 173.291 25.7941 172.117C27.5828 170.891 29.6761 170.335 32.0309 170.348C33.9764 170.482 35.7843 171.157 37.4581 172.322C39.0786 173.534 40.3758 175.074 41.2963 176.987C42.1669 178.897 42.5748 180.976 42.4238 183.165C42.2212 186.101 41.0518 188.521 38.9157 190.423C36.7796 192.326 34.1635 193.196 31.1206 192.986L29.9733 192.906C31.7127 196.027 34.7988 197.79 39.2384 198.096C41.4832 198.251 43.8121 197.912 46.1686 197.174C48.5783 196.39 50.6096 195.28 52.3656 193.802C54.1216 192.323 55.3358 190.706 55.9084 188.946C56.8972 186.964 57.4919 184.155 57.7357 180.622C57.9005 178.233 57.8159 175.827 57.5318 173.407C57.2442 171.037 56.7622 167.854 56.0822 163.907C55.3988 160.01 54.9064 156.976 54.6482 154.908C51.6037 155.448 48.4834 155.632 45.241 155.409C39.8037 155.033 34.7413 153.584 30.0571 151.011C25.373 148.438 21.3458 145.06 17.9291 140.824C14.5623 136.591 12.028 131.916 10.333 126.699C8.68442 121.535 8.00083 116.188 8.32863 110.71C8.87839 105.648 10.1627 100.836 12.2743 96.382C14.3895 91.8778 16.9862 87.6568 20.1111 83.7723C23.236 79.8878 26.4367 76.3585 29.7096 73.2342C33.029 70.1632 37.3614 66.212 42.8031 61.4373Z" fill="black" stroke="black" stroke-width="0.602291"/>
<path d="M106.806 48.6217C106.715 47.6913 106.478 46.8521 106.095 46.1042C105.711 45.3562 105.182 44.7633 104.507 44.3255C103.833 43.8694 102.993 43.6505 101.99 43.6687C100.968 43.6687 100.157 43.9515 99.5547 44.517C98.9527 45.0826 98.6517 45.7667 98.6517 46.5694C98.6517 47.2809 98.8524 47.8829 99.2537 48.3754C99.6551 48.8498 100.193 49.2785 100.868 49.6616C101.561 50.0447 102.337 50.4278 103.194 50.8109C103.887 51.1028 104.59 51.4311 105.301 51.796C106.012 52.1609 106.66 52.5804 107.244 53.0548C107.828 53.5108 108.293 54.0673 108.639 54.724C108.986 55.3625 109.159 56.1196 109.159 56.9953C109.159 58.0169 108.895 58.929 108.366 59.7317C107.837 60.5344 107.08 61.1638 106.095 61.6199C105.128 62.0759 103.951 62.304 102.565 62.304C101.78 62.304 100.95 62.1854 100.075 61.9482C99.2173 61.7111 98.4328 61.3736 97.7214 60.9357L97.8582 62.0851H96.1891L96.0796 56.0649H97.393C97.539 57.652 98.1045 58.856 99.0896 59.677C100.093 60.4797 101.288 60.881 102.674 60.881C103.367 60.881 103.997 60.7533 104.562 60.4979C105.128 60.2425 105.575 59.8777 105.903 59.4033C106.231 58.929 106.396 58.3726 106.396 57.7341C106.396 56.9861 106.168 56.3568 105.711 55.8459C105.274 55.3351 104.708 54.8973 104.015 54.5325C103.34 54.1676 102.629 53.821 101.881 53.4926C101.133 53.1642 100.403 52.8176 99.6915 52.4527C98.9983 52.0879 98.369 51.6683 97.8035 51.194C97.238 50.7197 96.791 50.1632 96.4627 49.5247C96.1343 48.868 95.9702 48.1018 95.9702 47.2261C95.9702 46.7153 96.0614 46.1772 96.2438 45.6116C96.4262 45.0461 96.7363 44.5079 97.1741 43.9971C97.6119 43.4863 98.2048 43.0758 98.9527 42.7657C99.7189 42.4373 100.677 42.2732 101.826 42.2732C102.519 42.2732 103.294 42.3735 104.152 42.5742C105.027 42.7748 105.821 43.1306 106.532 43.6414L106.423 42.4921H108.065V48.6217H106.806Z" fill="black"/>
<path d="M123.395 73.2224C122.811 73.2407 122.383 73.3684 122.109 73.6055C121.836 73.8244 121.662 74.1528 121.589 74.5907C121.516 75.0102 121.48 75.5667 121.48 76.2599V81.8833V87.5068C121.48 87.9993 121.471 88.4463 121.452 88.8476C121.452 89.2308 121.434 89.5409 121.398 89.778C121.708 89.7416 122.045 89.7233 122.41 89.7233C122.793 89.7051 123.122 89.6868 123.395 89.6686V91.1736H116.664V89.9696C117.266 89.9331 117.695 89.8054 117.95 89.5865C118.224 89.3676 118.397 89.0392 118.47 88.6014C118.543 88.1635 118.579 87.6071 118.579 86.9321V75.5484C118.579 75.1471 118.588 74.764 118.607 74.3991C118.625 74.016 118.643 73.6876 118.661 73.414C118.351 73.4322 118.014 73.4505 117.649 73.4687C117.284 73.487 116.956 73.5052 116.664 73.5234V72.0184H123.395V73.2224Z" fill="black"/>
<path d="M147.164 91.5567L136.985 78.0386C136.784 77.8014 136.593 77.5551 136.41 77.2997C136.228 77.0443 136.037 76.7798 135.836 76.5062H135.808L135.891 87.1509C135.891 87.607 135.881 88.0631 135.863 88.5192C135.863 88.9752 135.845 89.3948 135.808 89.778C136.119 89.7415 136.456 89.7232 136.821 89.7232C137.204 89.705 137.532 89.6867 137.806 89.6685V91.1735H132.388V89.9695C132.899 89.9695 133.282 89.8692 133.537 89.6685C133.811 89.4678 133.993 89.2033 134.085 88.8749C134.194 88.5465 134.249 88.1634 134.249 87.7256V75.4663C134.249 75.1014 134.249 74.7366 134.249 74.3717C134.249 74.0069 134.258 73.6876 134.276 73.414C133.984 73.4322 133.656 73.4505 133.291 73.4687C132.944 73.4869 132.634 73.5052 132.361 73.5234V72.0184H135.973L145.604 84.6882C145.915 85.0895 146.188 85.4635 146.425 85.8101C146.681 86.1567 146.927 86.4851 147.164 86.7952H147.192L147.219 75.5484C147.219 75.1471 147.228 74.764 147.246 74.3991C147.265 74.016 147.283 73.6876 147.301 73.414C146.973 73.4322 146.626 73.4505 146.261 73.4687C145.896 73.4869 145.577 73.5052 145.303 73.5234V72.0184H150.721V73.2224C150.138 73.2407 149.709 73.3684 149.435 73.6055C149.18 73.8244 149.016 74.1528 148.943 74.5907C148.888 75.0102 148.861 75.5666 148.861 76.2599L148.833 91.5567H147.164Z" fill="black"/>
<path d="M165.473 122.648C163.612 122.648 161.979 122.246 160.575 121.444C159.17 120.641 158.085 119.519 157.318 118.078C156.552 116.618 156.169 114.922 156.169 112.988C156.169 111.711 156.361 110.461 156.744 109.239C157.145 108.017 157.738 106.904 158.522 105.901C159.325 104.897 160.319 104.104 161.505 103.52C162.709 102.918 164.104 102.617 165.692 102.617C166.294 102.617 166.923 102.672 167.58 102.781C168.236 102.891 168.875 103.055 169.495 103.274C170.133 103.493 170.708 103.757 171.219 104.067L171.109 102.808H172.806V109.102H171.547C171.456 108.008 171.146 107.086 170.617 106.338C170.106 105.572 169.44 104.998 168.619 104.614C167.817 104.213 166.923 104.012 165.938 104.012C164.971 104.012 164.086 104.231 163.284 104.669C162.499 105.089 161.815 105.682 161.231 106.448C160.648 107.196 160.192 108.081 159.863 109.102C159.553 110.124 159.398 111.218 159.398 112.386C159.398 114.064 159.672 115.56 160.219 116.874C160.784 118.169 161.578 119.191 162.6 119.939C163.621 120.687 164.816 121.061 166.184 121.061C166.622 121.061 167.096 121.024 167.607 120.951C168.136 120.86 168.656 120.732 169.167 120.568C169.696 120.386 170.17 120.158 170.59 119.884V116.819C170.59 116.363 170.59 115.916 170.59 115.478C170.608 115.022 170.617 114.603 170.617 114.219C170.325 114.238 169.997 114.256 169.632 114.274C169.267 114.292 168.948 114.311 168.674 114.329V112.824H175.214V114.028C174.776 114.028 174.42 114.128 174.147 114.329C173.891 114.53 173.7 114.785 173.572 115.095C173.463 115.387 173.39 115.706 173.353 116.053C173.317 116.381 173.298 116.691 173.298 116.983V121.252H172.587C172.204 121.252 171.757 121.316 171.246 121.444C170.735 121.553 170.161 121.726 169.522 121.964C168.957 122.164 168.309 122.328 167.58 122.456C166.85 122.584 166.148 122.648 165.473 122.648Z" fill="black"/>
<path d="M187.935 133.549C187.352 133.567 186.923 133.695 186.649 133.932C186.376 134.151 186.202 134.479 186.129 134.917C186.056 135.337 186.02 135.893 186.02 136.586V147.833C186.02 148.326 186.011 148.773 185.993 149.174C185.993 149.557 185.974 149.867 185.938 150.104C186.248 150.068 186.585 150.05 186.95 150.05C187.333 150.031 187.662 150.013 187.935 149.995V151.5H181.204V150.296C181.806 150.259 182.235 150.132 182.49 149.913C182.764 149.694 182.937 149.365 183.01 148.928C183.083 148.49 183.119 147.933 183.119 147.258V135.875C183.119 135.473 183.129 135.09 183.147 134.725C183.165 134.342 183.183 134.014 183.202 133.74C182.891 133.759 182.554 133.777 182.189 133.795C181.824 133.813 181.496 133.832 181.204 133.85V132.345H187.935V133.549Z" fill="black"/>
<path d="M212.469 151.883L202.29 138.365C202.089 138.128 201.897 137.881 201.715 137.626C201.532 137.371 201.341 137.106 201.14 136.833H201.113L201.195 147.477C201.195 147.933 201.186 148.389 201.168 148.846C201.168 149.302 201.149 149.721 201.113 150.104C201.423 150.068 201.761 150.05 202.125 150.05C202.508 150.031 202.837 150.013 203.11 149.995V151.5H197.693V150.296C198.203 150.296 198.586 150.195 198.842 149.995C199.115 149.794 199.298 149.53 199.389 149.201C199.498 148.873 199.553 148.49 199.553 148.052V135.793C199.553 135.428 199.553 135.063 199.553 134.698C199.553 134.333 199.562 134.014 199.581 133.74C199.289 133.759 198.96 133.777 198.596 133.795C198.249 133.813 197.939 133.832 197.665 133.85V132.345H201.277L210.909 145.014C211.219 145.416 211.493 145.79 211.73 146.136C211.985 146.483 212.231 146.811 212.469 147.122H212.496L212.523 135.875C212.523 135.473 212.532 135.09 212.551 134.725C212.569 134.342 212.587 134.014 212.605 133.74C212.277 133.759 211.93 133.777 211.566 133.795C211.201 133.813 210.882 133.832 210.608 133.85V132.345H216.026V133.549C215.442 133.567 215.013 133.695 214.74 133.932C214.484 134.151 214.32 134.479 214.247 134.917C214.192 135.337 214.165 135.893 214.165 136.586L214.138 151.883H212.469Z" fill="black"/>
<path d="M228.352 122.15C226.491 122.15 224.858 121.749 223.454 120.946C222.049 120.143 220.964 119.022 220.197 117.58C219.431 116.121 219.048 114.424 219.048 112.491C219.048 111.214 219.24 109.964 219.623 108.742C220.024 107.519 220.617 106.406 221.401 105.403C222.204 104.4 223.198 103.606 224.384 103.022C225.588 102.42 226.983 102.119 228.57 102.119C229.172 102.119 229.802 102.174 230.459 102.284C231.115 102.393 231.754 102.557 232.374 102.776C233.012 102.995 233.587 103.26 234.098 103.57L233.988 102.311H235.685V108.605H234.426C234.335 107.51 234.025 106.589 233.496 105.841C232.985 105.075 232.319 104.5 231.498 104.117C230.696 103.716 229.802 103.515 228.817 103.515C227.85 103.515 226.965 103.734 226.163 104.172C225.378 104.591 224.694 105.184 224.11 105.95C223.527 106.698 223.07 107.583 222.742 108.605C222.432 109.626 222.277 110.721 222.277 111.888C222.277 113.567 222.551 115.063 223.098 116.376C223.663 117.672 224.457 118.693 225.478 119.441C226.5 120.189 227.695 120.563 229.063 120.563C229.501 120.563 229.975 120.527 230.486 120.454C231.015 120.362 231.535 120.235 232.046 120.07C232.575 119.888 233.049 119.66 233.468 119.386V116.322C233.468 115.865 233.468 115.418 233.468 114.981C233.487 114.525 233.496 114.105 233.496 113.722C233.204 113.74 232.876 113.758 232.511 113.777C232.146 113.795 231.827 113.813 231.553 113.831V112.326H238.093V113.53C237.655 113.53 237.299 113.631 237.026 113.831C236.77 114.032 236.579 114.287 236.451 114.598C236.342 114.889 236.269 115.209 236.232 115.555C236.196 115.884 236.177 116.194 236.177 116.486V120.755H235.466C235.083 120.755 234.636 120.818 234.125 120.946C233.614 121.056 233.04 121.229 232.401 121.466C231.836 121.667 231.188 121.831 230.459 121.959C229.729 122.086 229.027 122.15 228.352 122.15Z" fill="black"/>
<path d="M267.393 48.756C267.192 47.1142 266.627 45.8554 265.696 44.9798C264.766 44.0858 263.553 43.6298 262.057 43.6115C261.109 43.6115 260.233 43.8213 259.43 44.2409C258.628 44.6605 257.934 45.2534 257.351 46.0196C256.767 46.7676 256.311 47.6615 255.982 48.7013C255.672 49.7229 255.517 50.8448 255.517 52.0671C255.517 53.7272 255.809 55.2049 256.393 56.5002C256.977 57.7772 257.779 58.7714 258.801 59.4829C259.841 60.1944 261.017 60.5501 262.331 60.5501C263.498 60.5501 264.648 60.2765 265.779 59.7292C266.928 59.1637 267.876 58.3701 268.624 57.3485L269.527 58.1147C268.706 59.2458 267.831 60.1123 266.9 60.7143C265.97 61.3163 265.04 61.7177 264.109 61.9184C263.197 62.1373 262.367 62.2467 261.619 62.2467C260.251 62.2467 258.992 62.0005 257.843 61.5079C256.694 61.0153 255.7 60.3312 254.861 59.4556C254.04 58.5617 253.401 57.5309 252.945 56.3634C252.507 55.1776 252.288 53.9006 252.288 52.5323C252.288 51.2553 252.489 50.0057 252.89 48.7834C253.292 47.5611 253.885 46.4574 254.669 45.4723C255.453 44.4689 256.439 43.6754 257.624 43.0916C258.828 42.5078 260.224 42.2159 261.811 42.2159C262.741 42.2159 263.644 42.3436 264.52 42.599C265.414 42.8544 266.271 43.2466 267.092 43.7757L266.955 42.4075H268.652V48.756H267.393Z" fill="black"/>
<path d="M272.512 91.8055V90.5741C273.06 90.5741 273.479 90.4281 273.771 90.1362C274.063 89.8443 274.309 89.4521 274.51 88.9596C274.711 88.4488 274.93 87.8832 275.167 87.2629L280.694 72.1304H281.789L284.785 79.8061L287.781 87.4819C287.927 87.8285 288.091 88.3028 288.274 88.9048C288.456 89.4886 288.538 89.9903 288.52 90.4099C288.83 90.3734 289.131 90.3551 289.423 90.3551C289.733 90.3369 290.025 90.3186 290.298 90.3004V91.8055H283.649V90.6014C284.288 90.5832 284.707 90.4464 284.908 90.1909C285.127 89.9173 285.209 89.5889 285.154 89.2058C285.118 88.8227 285.027 88.4396 284.881 88.0565L284.06 85.84L277.356 86.0042L276.562 88.3849C276.453 88.7497 276.334 89.0964 276.206 89.4248C276.079 89.7531 275.951 90.0724 275.823 90.3825C276.152 90.346 276.498 90.3278 276.863 90.3278C277.246 90.3095 277.584 90.2913 277.876 90.273V91.8055H272.512ZM277.848 84.5265H283.595L281.871 79.9019C281.652 79.2999 281.442 78.707 281.241 78.1232C281.041 77.5212 280.858 76.9465 280.694 76.3992H280.667C280.521 76.8553 280.357 77.357 280.174 77.9043C279.992 78.4516 279.782 79.0445 279.545 79.683L277.848 84.5265Z" fill="black"/>
<path d="M307.226 78.3571C307.208 77.3172 307.09 76.4507 306.871 75.7574C306.652 75.0642 306.287 74.5443 305.776 74.1977C305.284 73.851 304.599 73.6869 303.724 73.7051H301.754L301.726 87.9346C301.726 88.4272 301.717 88.8742 301.699 89.2755C301.699 89.6586 301.681 89.9687 301.644 90.2059C301.991 90.1694 302.365 90.1512 302.766 90.1512C303.186 90.1329 303.56 90.1147 303.888 90.0964V91.6015H296.938V90.3975C297.54 90.361 297.968 90.2333 298.224 90.0143C298.479 89.7954 298.643 89.4671 298.716 89.0292C298.789 88.5732 298.826 88.0167 298.826 87.36V73.7325L296.527 73.7598C295.415 73.7598 294.603 74.1338 294.092 74.8818C293.581 75.6297 293.326 76.7882 293.326 78.3571H292.04L292.204 72.4463H308.348L308.512 78.3571H307.226Z" fill="black"/>
<path d="M328.007 108.473C327.807 106.831 327.241 105.572 326.311 104.697C325.381 103.803 324.167 103.347 322.672 103.328C321.723 103.328 320.847 103.538 320.045 103.958C319.242 104.377 318.549 104.97 317.965 105.736C317.381 106.484 316.925 107.378 316.597 108.418C316.287 109.44 316.132 110.562 316.132 111.784C316.132 113.444 316.424 114.922 317.007 116.217C317.591 117.494 318.394 118.488 319.415 119.2C320.455 119.911 321.632 120.267 322.945 120.267C324.113 120.267 325.262 119.993 326.393 119.446C327.542 118.881 328.491 118.087 329.239 117.065L330.142 117.832C329.321 118.963 328.445 119.829 327.515 120.431C326.585 121.033 325.654 121.435 324.724 121.635C323.812 121.854 322.982 121.964 322.234 121.964C320.866 121.964 319.607 121.717 318.458 121.225C317.308 120.732 316.314 120.048 315.475 119.172C314.654 118.279 314.016 117.248 313.56 116.08C313.122 114.894 312.903 113.617 312.903 112.249C312.903 110.972 313.104 109.723 313.505 108.5C313.906 107.278 314.499 106.174 315.284 105.189C316.068 104.186 317.053 103.392 318.239 102.808C319.443 102.225 320.838 101.933 322.425 101.933C323.356 101.933 324.259 102.06 325.134 102.316C326.028 102.571 326.886 102.963 327.706 103.493L327.57 102.124H329.266V108.473H328.007Z" fill="black"/>
<path d="M335.724 151.162V149.958C336.326 149.921 336.755 149.793 337.01 149.574C337.284 149.356 337.457 149.027 337.53 148.589C337.603 148.152 337.639 147.595 337.639 146.92V135.536C337.639 135.135 337.648 134.752 337.667 134.387C337.685 134.004 337.703 133.676 337.721 133.402C337.411 133.42 337.074 133.439 336.709 133.457C336.344 133.475 336.016 133.493 335.724 133.512V132.006H342.455V133.211C341.871 133.229 341.443 133.356 341.169 133.594C340.895 133.813 340.722 134.141 340.649 134.579C340.576 134.998 340.54 135.555 340.54 136.248V140.708H349.597V135.536C349.597 135.135 349.606 134.752 349.624 134.387C349.643 134.004 349.661 133.676 349.679 133.402C349.369 133.42 349.031 133.439 348.667 133.457C348.302 133.475 347.973 133.493 347.682 133.512V132.006H354.413V133.211C353.829 133.229 353.4 133.356 353.127 133.594C352.853 133.813 352.68 134.141 352.607 134.579C352.534 134.998 352.497 135.555 352.497 136.248V147.495C352.497 147.987 352.488 148.434 352.47 148.836C352.47 149.219 352.452 149.529 352.415 149.766C352.726 149.73 353.063 149.711 353.428 149.711C353.793 149.693 354.121 149.675 354.413 149.657V151.162H347.682V149.958C348.284 149.921 348.712 149.793 348.968 149.574C349.241 149.356 349.415 149.027 349.488 148.589C349.561 148.152 349.597 147.595 349.597 146.92V142.131L340.54 142.213V147.495C340.54 147.987 340.531 148.434 340.512 148.836C340.512 149.219 340.494 149.529 340.458 149.766C340.768 149.73 341.105 149.711 341.47 149.711C341.853 149.693 342.182 149.675 342.455 149.657V151.162H335.724Z" fill="black"/>
<path d="M369.634 144.238C369.634 143.454 369.516 142.888 369.279 142.542C369.06 142.195 368.722 141.985 368.266 141.912C367.81 141.821 367.245 141.794 366.57 141.83L364.983 141.885V147.577C364.983 148.069 364.973 148.507 364.955 148.89C364.955 149.255 364.937 149.556 364.9 149.793L369.607 149.739C370.318 149.72 370.957 149.593 371.522 149.356C372.088 149.1 372.535 148.671 372.863 148.069C373.192 147.467 373.356 146.646 373.356 145.607H374.56L374.396 151.162H360.167V149.958C360.769 149.921 361.197 149.793 361.453 149.574C361.726 149.356 361.9 149.027 361.973 148.589C362.046 148.152 362.082 147.595 362.082 146.92V135.536C362.082 135.135 362.091 134.752 362.109 134.387C362.128 134.004 362.146 133.676 362.164 133.402C361.854 133.42 361.517 133.439 361.152 133.457C360.787 133.475 360.459 133.493 360.167 133.512V132.006H373.52L373.657 136.959H372.453C372.453 135.92 372.279 135.126 371.933 134.579C371.604 134.031 371.167 133.667 370.619 133.484C370.09 133.302 369.516 133.22 368.895 133.238L366.98 133.293C366.415 133.293 365.986 133.393 365.694 133.594C365.402 133.776 365.211 134.086 365.119 134.524C365.028 134.944 364.983 135.518 364.983 136.248V140.544H369.497L369.333 138.191H370.838V144.238H369.634Z" fill="black"/>
<path d="M377.234 121.613V120.409C377.836 120.372 378.264 120.245 378.52 120.026C378.793 119.807 378.967 119.478 379.04 119.041C379.113 118.603 379.149 118.046 379.149 117.371V105.988C379.149 105.586 379.158 105.203 379.177 104.838C379.195 104.455 379.213 104.127 379.231 103.853C378.921 103.872 378.584 103.89 378.219 103.908C377.854 103.926 377.526 103.944 377.234 103.963V102.458C378.347 102.439 379.468 102.43 380.599 102.43C381.73 102.412 382.871 102.412 384.02 102.43C385.735 102.43 387.148 102.631 388.261 103.032C389.374 103.415 390.204 103.99 390.751 104.756C391.317 105.523 391.59 106.489 391.572 107.657C391.59 108.387 391.444 109.116 391.134 109.846C390.824 110.558 390.304 111.196 389.575 111.762C388.845 112.327 387.842 112.756 386.565 113.048C386.929 113.267 387.258 113.568 387.55 113.951C387.842 114.334 388.143 114.763 388.453 115.237L390.122 117.809C390.468 118.356 390.788 118.822 391.08 119.205C391.371 119.588 391.7 119.889 392.065 120.108C392.429 120.308 392.867 120.409 393.378 120.409V121.613H389.575C389.1 121.212 388.69 120.783 388.343 120.327C388.015 119.852 387.659 119.323 387.276 118.74L385.388 115.675C385.151 115.31 384.895 114.918 384.622 114.498C384.366 114.078 384.084 113.723 383.774 113.431C383.482 113.431 383.19 113.431 382.898 113.431C382.624 113.431 382.342 113.431 382.05 113.431V117.946C382.05 118.439 382.041 118.886 382.022 119.287C382.022 119.67 382.004 119.98 381.968 120.217C382.186 120.199 382.415 120.19 382.652 120.19C382.907 120.172 383.153 120.153 383.39 120.135C383.646 120.117 383.865 120.108 384.047 120.108V121.613H377.234ZM383.637 112.09C384.64 112.072 385.497 111.917 386.209 111.625C386.92 111.315 387.468 110.849 387.851 110.229C388.234 109.591 388.425 108.77 388.425 107.766C388.425 107.018 388.316 106.389 388.097 105.878C387.878 105.367 387.568 104.957 387.167 104.647C386.765 104.318 386.282 104.09 385.716 103.963C385.169 103.817 384.576 103.744 383.938 103.744C383.354 103.744 382.925 103.853 382.652 104.072C382.396 104.291 382.232 104.61 382.159 105.03C382.086 105.45 382.05 105.988 382.05 106.644V112.008C382.323 112.026 382.579 112.053 382.816 112.09C383.071 112.108 383.345 112.108 383.637 112.09Z" fill="black"/>
<rect y="36.0714" width="400" height="1.99015" fill="black"/>
<rect y="66.4211" width="400" height="1.99015" fill="black"/>
<rect y="96.2734" width="400" height="1.99015" fill="black"/>
<rect y="126.126" width="400" height="1.99015" fill="black"/>
<rect y="155.978" width="400" height="1.99015" fill="black"/>
</g>
<defs>
<clipPath id="clip0_27_2">
<rect width="400" height="202" fill="white"/>
</clipPath>
</defs>
</svg>
